
<svg xmlns="http://www.w3.org/2000/svg" width="600pt" height="600pt" viewBox="0 0 600 599.99999" fill-rule="evenodd" version="1.1" id="svg228">
  
  <defs id="defs232"></defs>
  
  <g id="g226" transform="matrix(6.1216368,0,0,6.1215119,-1514.9949,-2286.4459)">
    <path style="fill:#0a2c83;stroke:none" d="m 247.482,422.518 c 0,27.022 21.985,49.007 49.005,49.007 27.025,0 49.008,-21.985 49.008,-49.007 0,-27.023 -21.983,-49.008 -49.008,-49.008 -27.02,0 -49.005,21.985 -49.005,49.008 z" id="path2"></path>
    <path style="fill:#ffffff;stroke:none" d="m 259.232,422.516 c 0,20.544 16.712,37.258 37.256,37.258 20.541,0 37.258,-16.714 37.258,-37.258 0,-20.544 -16.717,-37.255 -37.258,-37.255 -20.544,0 -37.256,16.711 -37.256,37.255 z" id="path4"></path>
    <g id="g132">
      <path style="fill:#1f5fa9;stroke:none" d="m 271.624,432.748 -1.364,2.357 1.887,1.061 2.716,-1.569 z" id="path6"></path>
      <path style="fill:#1f5fa9;stroke:none" d="m 272.49,438.964 2.723,-0.002 0.018,-3.728 -2.716,1.57 z" id="path8"></path>
      <path style="fill:#1f5fa9;stroke:none" d="m 320.416,406.146 -2.725,0.003 -0.015,3.731 2.716,-1.567 z" id="path10"></path>
      <path style="fill:#1f5fa9;stroke:none" d="m 321.283,412.364 1.362,-2.359 -1.884,-1.058 -2.715,1.57 z" id="path12"></path>
      <path style="fill:#1f5fa9;stroke:none" d="m 318.045,434.559 2.716,1.569 1.884,-1.061 -1.362,-2.357 z" id="path14"></path>
      <path style="fill:#1f5fa9;stroke:none" d="m 317.676,435.196 0.015,3.731 h 2.725 l -0.024,-2.163 z" id="path16"></path>
      <path style="fill:#1f5fa9;stroke:none" d="m 274.863,410.478 -2.716,-1.569 -1.887,1.059 1.364,2.359 z" id="path18"></path>
      <path style="fill:#1f5fa9;stroke:none" d="m 275.231,409.84 -0.018,-3.728 -2.723,-0.002 0.025,2.162 z" id="path20"></path>
      <path style="fill:#1f5fa9;stroke:none" d="m 298.715,393.541 -1.859,1.101 v 3.138 l 3.218,-1.879 z" id="path22"></path>
      <path style="fill:#1f5fa9;stroke:none" d="m 296.119,394.646 -1.859,-1.105 -1.363,2.36 3.222,1.881 z" id="path24"></path>
      <path style="fill:#1f5fa9;stroke:none" d="m 296.119,399.397 -3.914,-2.327 -1.352,2.339 5.266,3.122 z" id="path26"></path>
      <path style="fill:#1f5fa9;stroke:none" d="m 300.764,397.07 -3.908,2.325 v 3.133 l 5.261,-3.119 z" id="path28"></path>
      <path style="fill:#1f5fa9;stroke:none" d="m 296.856,450.358 1.859,1.098 1.359,-2.359 -3.218,-1.877 z" id="path30"></path>
      <path style="fill:#1f5fa9;stroke:none" d="m 294.26,451.456 1.859,-1.101 v -3.137 l -3.222,1.879 z" id="path32"></path>
      <path style="fill:#1f5fa9;stroke:none" d="m 297.648,391.631 c 0,0.948 -0.517,1.715 -1.161,1.715 -0.641,0 -1.16,-0.767 -1.16,-1.715 0,-0.947 0.519,-1.715 1.16,-1.715 0.644,0 1.161,0.768 1.161,1.715 z" id="path34"></path>
      <path style="fill:#1f5fa9;stroke:none" d="m 297.648,453.405 c 0,0.947 -0.517,1.713 -1.161,1.713 -0.641,0 -1.16,-0.766 -1.16,-1.713 0,-0.949 0.519,-1.716 1.16,-1.716 0.644,0 1.161,0.767 1.161,1.716 z" id="path36"></path>
      <path style="fill:#1f5fa9;stroke:none" d="m 323.817,408.081 c -0.821,0.473 -1.745,0.406 -2.065,-0.148 -0.323,-0.557 0.081,-1.392 0.902,-1.866 0.821,-0.474 1.747,-0.407 2.069,0.148 0.32,0.558 -0.086,1.392 -0.906,1.866 z" id="path38"></path>
      <path style="fill:#1f5fa9;stroke:none" d="m 270.321,438.968 c -0.819,0.474 -1.745,0.407 -2.067,-0.149 -0.32,-0.556 0.084,-1.39 0.904,-1.865 0.82,-0.474 1.747,-0.406 2.067,0.151 0.321,0.554 -0.083,1.389 -0.904,1.863 z" id="path40"></path>
      <path style="fill:#1f5fa9;stroke:none" d="m 270.319,406.068 c 0.821,0.473 1.225,1.308 0.906,1.865 -0.322,0.554 -1.247,0.622 -2.067,0.148 -0.822,-0.474 -1.226,-1.307 -0.904,-1.866 0.322,-0.555 1.246,-0.622 2.065,-0.147 z" id="path42"></path>
      <path style="fill:#1f5fa9;stroke:none" d="m 323.817,436.954 c 0.82,0.475 1.226,1.309 0.906,1.865 -0.325,0.556 -1.248,0.623 -2.069,0.149 -0.821,-0.474 -1.225,-1.309 -0.902,-1.863 0.32,-0.557 1.244,-0.625 2.065,-0.151 z" id="path44"></path>
      <path style="fill:#1f5fa9;stroke:none" d="m 313.451,430.857 5.115,-2.881 -1.34,-2.342 -5.131,2.891 z" id="path46"></path>
      <path style="fill:#1f5fa9;stroke:none" d="m 309.474,433.012 0.063,5.938 2.701,-0.009 -0.065,-5.929 z" id="path48"></path>
      <path style="fill:#1f5fa9;stroke:none" d="m 280.877,428.598 -5.196,-2.927 -1.34,2.344 5.186,2.92 z" id="path50"></path>
      <path style="fill:#1f5fa9;stroke:none" d="m 280.734,433.012 -0.062,5.966 2.697,0.01 0.063,-5.976 z" id="path52"></path>
      <path style="fill:#1f5fa9;stroke:none" d="m 313.633,406.133 -0.067,5.875 h 0.424 l 2.287,-1.32 0.056,-4.553 z" id="path54"></path>
      <path style="fill:#1f5fa9;stroke:none" d="m 316.647,411.323 -2.393,1.381 -0.158,0.278 5.169,2.907 1.35,-2.34 z" id="path56"></path>
      <path style="fill:#1f5fa9;stroke:none" d="m 319.265,429.187 -5.112,2.874 0.22,0.381 2.274,1.309 3.968,-2.225 z" id="path58"></path>
      <path style="fill:#1f5fa9;stroke:none" d="m 316.277,434.388 -2.38,-1.376 h -0.331 l 0.067,5.929 h 2.7 z" id="path60"></path>
      <g id="g66">
        <path style="fill:#1f5fa9;stroke:none" d="m 295.928,442.584 -5.075,3.006 1.352,2.338 3.914,-2.325 v -2.684 z" id="path62"></path>
        <path style="fill:#1f5fa9;stroke:none" d="m 296.856,442.907 v 2.699 l 3.908,2.322 1.353,-2.338 -5.074,-3.006 z" id="path64"></path>
      </g>
      <path style="fill:#1f5fa9;stroke:none" d="m 279.08,433.012 -2.45,1.417 -0.058,4.549 2.7,10e-4 0.067,-5.967 z" id="path68"></path>
      <path style="fill:#1f5fa9;stroke:none" d="m 278.83,432.14 -5.188,-2.916 -1.35,2.34 3.972,2.228 2.42,-1.398 z" id="path70"></path>
      <path style="fill:#1f5fa9;stroke:none" d="m 278.728,412.709 -2.467,-1.426 -3.969,2.227 1.35,2.341 5.21,-2.93 z" id="path72"></path>
      <path style="fill:#1f5fa9;stroke:none" d="m 279.339,412.008 -0.067,-5.912 -2.7,10e-4 0.058,4.55 2.355,1.361 z" id="path74"></path>
      <path style="fill:#1f5fa9;stroke:none" d="m 293.893,439.034 -5.094,3.014 1.356,2.332 5.079,-3.004 z" id="path76"></path>
      <path style="fill:#1f5fa9;stroke:none" d="m 297.744,441.379 5.071,3.001 1.359,-2.332 -5.072,-3.002 z" id="path78"></path>
      <path style="fill:#1f5fa9;stroke:none" d="m 313.4,414.189 -1.343,2.339 5.169,2.911 1.34,-2.341 z" id="path80"></path>
      <path style="fill:#1f5fa9;stroke:none" d="m 312.173,412.008 0.061,-5.873 -2.697,-0.012 -0.063,5.885 z" id="path82"></path>
      <path style="fill:#1f5fa9;stroke:none" d="m 299.06,405.977 5.114,-3.025 -1.359,-2.331 -5.107,3.021 z" id="path84"></path>
      <path style="fill:#1f5fa9;stroke:none" d="m 295.262,403.641 -5.107,-3.02 -1.356,2.331 5.115,3.026 z" id="path86"></path>
      <path style="fill:#1f5fa9;stroke:none" d="m 279.547,414.129 -5.206,2.931 1.34,2.343 5.21,-2.936 z" id="path88"></path>
      <path style="fill:#1f5fa9;stroke:none" d="m 283.432,412.008 -0.063,-5.922 -2.697,0.011 0.062,5.911 z" id="path90"></path>
      <path style="fill:#1f5fa9;stroke:none" d="m 310.033,424.987 1.361,2.335 5.139,-2.895 -0.931,-1.611 h -1.721 z" id="path92"></path>
      <path style="fill:#1f5fa9;stroke:none" d="m 304.795,407.29 0.941,-1.632 -0.864,-1.504 -5.115,3.027 1.311,2.262 z" id="path94"></path>
      <path style="fill:#1f5fa9;stroke:none" d="m 305.396,412.008 h 2.689 l 0.062,-5.888 -1.86,0.003 -0.891,1.539 z" id="path96"></path>
      <path style="fill:#1f5fa9;stroke:none" d="m 311.363,417.734 -1.288,2.241 3.702,2.135 h 1.908 l 0.848,-1.463 z" id="path98"></path>
      <path style="fill:#1f5fa9;stroke:none" d="m 305.396,433.012 v 4.223 l 0.984,1.706 1.767,0.013 -0.065,-5.942 z" id="path100"></path>
      <path style="fill:#1f5fa9;stroke:none" d="m 301.151,435.521 -1.35,2.322 5.071,3.002 0.9,-1.542 -0.96,-1.665 z" id="path102"></path>
      <path style="fill:#1f5fa9;stroke:none" d="m 288.066,437.624 -0.916,1.588 0.95,1.633 5.099,-3.018 -1.361,-2.374 z" id="path104"></path>
      <path style="fill:#1f5fa9;stroke:none" d="m 287.457,433.012 h -2.634 l -0.063,5.979 1.703,-0.002 0.994,-1.72 z" id="path106"></path>
      <path style="fill:#1f5fa9;stroke:none" d="m 279.11,422.816 h -1.795 l -0.942,1.65 5.199,2.928 1.37,-2.369 z" id="path108"></path>
      <path style="fill:#1f5fa9;stroke:none" d="m 282.883,419.928 -1.297,-2.255 -5.213,2.935 0.869,1.502 h 1.875 z" id="path110"></path>
      <path style="fill:#1f5fa9;stroke:none" d="m 289.066,407.87 2.823,1.622 1.33,-2.308 -5.119,-3.03 -0.918,1.597 0.878,1.524 z" id="path112"></path>
      <path style="fill:#1f5fa9;stroke:none" d="m 287.457,412.008 v -4.369 l -0.898,-1.553 -1.799,-0.004 0.063,5.926 z" id="path114"></path>
      <path style="fill:#1f5fa9;stroke:none" d="m 288.523,410.817 c 0.266,-0.127 0.6,-0.154 0.92,-0.052 l 1.45,0.457 0.642,-1.118 -3.372,-1.939 v 2.96 c 0.089,-0.129 0.214,-0.234 0.36,-0.308 z" id="path116"></path>
      <path style="fill:#1f5fa9;stroke:none" d="m 303.246,410.946 0.404,0.03 c 0,0 0.596,0.025 1.04,0.449 v -3.26 l -3.27,1.888 0.518,0.893 z" id="path118"></path>
      <path style="fill:#1f5fa9;stroke:none" d="m 289.373,434.605 c -0.135,0.021 -0.287,0.025 -0.398,0.025 -0.039,0 -0.078,0 -0.118,-0.004 -0.042,0.004 -0.129,-0.021 -0.129,-0.021 -0.178,-0.045 -0.343,-0.131 -0.479,-0.254 -0.03,-0.029 -0.058,-0.063 -0.086,-0.094 v 2.499 l 3.323,-1.915 -0.319,-0.557 c -0.663,0.166 -1.282,0.268 -1.794,0.321 z" id="path120"></path>
      <path style="fill:#1f5fa9;stroke:none" d="m 304.028,434.628 c 0,0 -0.081,0.026 -0.125,0.022 -0.042,0.004 -0.116,0 -0.167,-0.006 -0.109,-0.01 -0.224,-0.018 -0.305,-0.035 -0.378,-0.04 -0.791,-0.106 -1.255,-0.206 -0.108,-0.02 -0.221,-0.054 -0.329,-0.08 l -0.334,0.576 3.178,1.844 -10e-4,-2.58 c -0.147,0.231 -0.382,0.401 -0.662,0.465 z" id="path122"></path>
      <path style="fill:#0a2c83;stroke:none" d="m 300.474,433.921 c -0.29,-0.107 -0.572,-0.226 -0.835,-0.352 -0.194,-0.093 -0.379,-0.187 -0.557,-0.291 -0.013,-0.007 -0.032,-0.017 -0.048,-0.025 -0.128,-0.074 -0.251,-0.146 -0.371,-0.226 -0.148,-0.098 -0.295,-0.196 -0.435,-0.303 -0.017,-0.011 -0.033,-0.024 -0.047,-0.032 -0.151,-0.117 -0.296,-0.236 -0.437,-0.355 -0.531,-0.473 -0.974,-1.01 -1.331,-1.604 -0.354,0.6 -0.804,1.136 -1.341,1.609 -0.156,0.136 -0.314,0.268 -0.487,0.391 -0.009,0.006 -0.015,0.013 -0.02,0.018 -0.27,0.197 -0.556,0.381 -0.859,0.549 -0.084,0.047 -0.167,0.094 -0.253,0.137 -0.09,0.049 -0.181,0.091 -0.277,0.138 -0.261,0.123 -0.538,0.239 -0.822,0.346 -0.161,0.059 -0.324,0.113 -0.485,0.164 l 4.613,8.045 4.614,-8.008 c -0.207,-0.062 -0.412,-0.125 -0.622,-0.201 z" id="path124"></path>
      <path style="fill:#1f5fa9;stroke:none" d="m 309.67,424.364 3.314,-1.899 -3.26,-1.879 -1.122,1.949 z" id="path126"></path>
      <path style="fill:#1f5fa9;stroke:none" d="m 283.236,420.543 -3.32,1.922 3.379,1.949 1.086,-1.879 z" id="path128"></path>
      <path style="fill:#0a2c83;stroke:none" d="m 313.426,412.72 h -8.26 c 0,0.022 0.003,0.042 0.003,0.065 v 0.033 c -0.02,1.072 -0.075,1.118 -0.193,1.997 -0.031,0.21 -0.062,0.415 -0.097,0.61 -0.004,0.018 -0.007,0.037 -0.009,0.054 -0.055,0.328 -0.116,0.639 -0.184,0.941 -0.002,0.016 -0.007,0.033 -0.012,0.051 -0.041,0.19 -0.088,0.376 -0.136,0.553 -0.223,0.867 -0.494,1.616 -0.777,2.251 0.427,0.655 0.938,1.333 1.555,2.003 0.018,0.015 0.036,0.03 0.048,0.044 0.164,0.165 0.265,0.386 0.265,0.624 0,0.079 -0.01,0.156 -0.033,0.231 -0.041,0.156 -0.128,0.293 -0.242,0.404 -0.007,0.007 -0.018,0.017 -0.026,0.026 -0.179,0.158 -0.42,0.259 -0.683,0.259 -0.257,0 -0.493,-0.093 -0.669,-0.248 l -0.011,0.012 c 0,0 -0.563,-0.552 -1.275,-1.464 -0.672,0.94 -1.217,1.316 -1.217,1.316 l -0.015,-0.01 c -0.175,0.151 -0.41,0.244 -0.668,0.244 -0.431,0 -0.8,-0.262 -0.93,-0.622 -0.174,0.253 -0.476,0.42 -0.826,0.42 -0.22,0 -0.425,-0.068 -0.588,-0.181 0,0 -0.003,-0.004 -0.012,-0.012 -0.098,-0.07 -0.182,-0.16 -0.244,-0.262 -0.397,-0.513 -1.104,-1.846 -0.856,-4.672 0,0 0,0 0,-0.002 0,-0.002 0,-0.009 0.002,-0.015 0.014,-0.126 0.061,-0.243 0.127,-0.346 0.168,-0.268 0.48,-0.445 0.838,-0.445 0.359,0 0.67,0.177 0.841,0.445 0.084,0.132 0.133,0.291 0.133,0.456 0,0.063 -0.01,0.127 -0.025,0.186 -0.018,0.208 -0.165,2.016 0.625,3.491 0.031,0.049 0.058,0.105 0.078,0.161 0.055,-0.084 0.125,-0.156 0.199,-0.219 0.524,-0.543 0.959,-1.121 1.317,-1.715 -0.431,-0.711 -0.835,-1.512 -1.137,-2.36 -0.069,-0.183 -0.129,-0.366 -0.183,-0.553 -0.007,-0.018 -0.007,-0.035 -0.018,-0.051 -0.087,-0.31 -0.163,-0.624 -0.219,-0.941 -0.006,-0.017 -0.006,-0.036 -0.01,-0.054 -0.037,-0.201 -0.064,-0.403 -0.084,-0.61 -0.013,-0.16 -0.025,-0.318 -0.03,-0.478 h 0.004 c 0,-0.015 -0.004,-0.025 -0.004,-0.037 0,-0.498 0.439,-0.902 0.976,-0.902 0.509,0 0.929,0.363 0.968,0.829 v 0 c 0,0 0.025,0.215 0.11,0.588 0.038,0.173 0.088,0.378 0.156,0.61 0.002,0.018 0.01,0.037 0.012,0.054 0.083,0.278 0.18,0.596 0.31,0.941 0.008,0.016 0.012,0.033 0.019,0.051 0.061,0.163 0.13,0.334 0.206,0.506 0.051,-0.171 0.102,-0.338 0.145,-0.506 0.003,-0.018 0.009,-0.035 0.013,-0.051 0.085,-0.326 0.154,-0.638 0.213,-0.941 0,-0.017 0.004,-0.036 0.004,-0.054 0.041,-0.21 0.07,-0.412 0.097,-0.61 0.108,-0.812 0.137,-1.104 0.124,-1.608 -0.069,-0.424 -0.422,-0.387 -0.422,-0.387 h -0.19 -1.871 l -0.127,0.006 c -0.515,-0.008 -0.929,-0.426 -0.929,-0.926 0,-0.121 -0.002,-0.269 0.028,-0.379 0.093,-0.331 0.36,-0.579 0.76,-0.584 l 0.18,0.009 h 0.546 l -4.634,-8.001 -4.906,8.511 c 0.449,0.23 0.686,0.701 0.523,1.116 -0.175,0.479 -0.792,0.714 -1.364,0.527 l -1.213,-0.379 h -9.971 l 5.648,9.815 -5.648,9.769 h 10.41 c 0.34,-0.072 0.682,-0.145 1.068,-0.269 0.93,-0.301 1.981,-0.705 2.73,-1.471 0.179,-0.184 0.341,-0.349 0.491,-0.566 0.014,-0.018 0.022,-0.036 0.033,-0.052 0.184,-0.277 0.341,-0.578 0.465,-0.912 0.01,-0.014 0.013,-0.033 0.022,-0.051 0.058,-0.172 0.111,-0.35 0.151,-0.535 0.026,-0.109 0.048,-0.226 0.068,-0.343 h -5.636 c -0.63,0 -1.146,-0.479 -1.146,-1.062 v -0.097 c 0,-0.582 0.516,-1.06 1.146,-1.06 h 5.856 v -1.382 c 0,-0.581 0.538,-1.06 1.198,-1.06 h 0.109 c 0.662,0 1.202,0.479 1.202,1.06 v 1.382 h 5.816 c 0.628,0 1.145,0.478 1.145,1.06 v 0.097 c 0,0.583 -0.517,1.062 -1.145,1.062 h -5.695 c 0.019,0.117 0.038,0.234 0.067,0.343 0.041,0.185 0.093,0.363 0.153,0.535 0.006,0.018 0.011,0.037 0.018,0.051 0.128,0.334 0.282,0.635 0.464,0.912 0.016,0.016 0.027,0.034 0.037,0.052 0.15,0.217 0.303,0.421 0.491,0.591 0.929,0.844 1.918,1.205 2.986,1.507 0.289,0.081 0.502,0.149 0.704,0.208 h 10.667 l -5.641,-9.769 z m -25.599,1.338 c 0.066,-0.174 0.191,-0.315 0.354,-0.417 0.274,-0.173 0.65,-0.224 1.014,-0.11 l 2.252,0.73 c 0.321,0.106 0.565,0.324 0.686,0.577 0.084,0.197 0.101,0.408 0.031,0.61 0,0.002 0,0.01 -0.006,0.01 -0.002,0.018 -0.01,0.03 -0.012,0.046 -0.203,0.445 -0.796,0.659 -1.351,0.48 l -1.491,-0.48 -0.163,-0.056 -0.598,-0.192 c -0.254,-0.08 -0.455,-0.234 -0.59,-0.418 -0.027,-0.035 -0.051,-0.071 -0.073,-0.109 -0.11,-0.21 -0.138,-0.447 -0.053,-0.671 z m 3.664,3.655 c 0.114,2.449 -1.991,4.616 -2.141,4.769 -0.188,0.21 -0.468,0.347 -0.79,0.347 -0.203,0 -0.388,-0.055 -0.546,-0.151 -0.199,-0.113 -0.352,-0.292 -0.426,-0.501 -0.002,-0.003 -0.002,-0.006 -0.002,-0.007 -0.029,-0.087 -0.041,-0.181 -0.041,-0.276 0,-0.285 0.137,-0.539 0.352,-0.712 0.021,-0.02 0.041,-0.038 0.062,-0.059 1.615,-1.652 1.53,-3.633 1.53,-3.633 l 0.025,0.003 c 0.021,-0.178 0.103,-0.341 0.226,-0.469 0.184,-0.192 0.457,-0.318 0.764,-0.318 0.306,0 0.582,0.126 0.768,0.318 0.142,0.151 0.229,0.349 0.229,0.564 0,0.043 -10e-4,0.085 -0.01,0.125 z m 1.875,4.346 c -0.061,0.102 -0.139,0.192 -0.24,0.262 -0.007,0.008 -0.013,0.012 -0.013,0.012 -0.166,0.113 -0.369,0.181 -0.588,0.181 -0.538,0 -0.976,-0.403 -0.976,-0.898 0,-0.166 0.053,-0.323 0.137,-0.459 0.79,-1.475 0.64,-3.283 0.619,-3.491 -0.012,-0.059 -0.021,-0.123 -0.021,-0.186 0,-0.165 0.05,-0.324 0.136,-0.456 0.168,-0.268 0.482,-0.445 0.838,-0.445 0.357,0 0.672,0.177 0.839,0.445 0.066,0.103 0.11,0.22 0.126,0.346 h 0.002 c 0.002,0.006 0.002,0.013 0.002,0.015 0,0.002 0,0.002 0,0.002 0.245,2.826 -0.456,4.159 -0.861,4.672 z m 3.587,-5.639 v 0.051 0.553 4.959 c 0,0.599 -0.533,1.095 -1.185,1.095 h -0.016 c -0.65,0 -1.184,-0.496 -1.184,-1.095 v -4.959 -0.553 -0.051 -0.65 h -0.84 c -0.339,0 -0.644,-0.111 -0.863,-0.291 -0.018,-0.017 -0.039,-0.036 -0.06,-0.054 -0.164,-0.158 -0.262,-0.36 -0.262,-0.579 0,-0.01 0,-0.019 0,-0.031 0.019,-0.493 0.547,-0.893 1.185,-0.893 h 0.84 v -2.357 -0.63 c 0,-0.235 0.082,-0.454 0.223,-0.634 0.211,-0.277 0.564,-0.459 0.961,-0.459 h 0.016 c 0.652,0 1.185,0.494 1.185,1.093 v 0.313 h 1.139 c 0.648,0 1.183,0.414 1.183,0.923 0,0.508 -0.535,0.924 -1.183,0.924 h -1.139 v 0.827 h 1.229 c 0.638,0 1.161,0.4 1.179,0.893 0,0.012 0.004,0.021 0.004,0.031 0,0.219 -0.1,0.421 -0.263,0.579 -0.022,0.018 -0.043,0.037 -0.065,0.054 -0.212,0.18 -0.517,0.291 -0.855,0.291 h -1.229 z" id="path130"></path>
    </g>
    <g id="g224">
      <g id="g170">
        <g id="g138">
          <path style="fill:#ffffff;stroke:none" d="m 268.822,455.301 -4.525,-5.364 -0.568,0.48 c 0,0 1.839,2.18 1.926,2.283 -0.083,0.07 -0.369,0.311 -0.452,0.381 -0.086,-0.103 -1.752,-2.079 -1.752,-2.079 l -0.568,0.48 c 0,0 3.402,4.035 3.491,4.14 -0.103,0.09 -1.201,1.015 -1.201,1.015 l 0.735,0.872 1.772,-1.494 c 0,0 -1.656,-1.961 -1.74,-2.061 0.084,-0.07 0.369,-0.31 0.452,-0.381 0.087,0.104 1.908,2.262 1.908,2.262 l 0.568,-0.48 z" id="path134"></path>
          <path style="fill:#ffffff;stroke:none" d="m 268.791,451.368 -0.612,-0.724 -0.04,0.007 c -1.282,0.231 -2.471,-0.947 -2.804,-1.314 l -0.045,-0.051 -0.064,0.039 -0.506,0.429 0.047,0.055 c 1.28,1.447 2.289,1.831 2.929,1.889 -0.049,0.642 0.157,1.7 1.369,3.205 l 0.044,0.057 0.57,-0.479 -0.051,-0.066 c -0.392,-0.502 -1.255,-1.791 -0.826,-2.976 l 0.014,-0.039 z" id="path136"></path>
        </g>
        <path style="fill:#ffffff;stroke:none" d="m 279.754,458.909 -0.847,-0.539 c 0,0 -0.249,0.391 -0.311,0.487 -0.104,-0.067 -1.075,-0.682 -1.18,-0.749 0.058,-0.087 0.24,-0.378 0.24,-0.378 l -3.37,-2.138 -1.512,2.382 3.372,2.138 c 0,0 0.182,-0.289 0.239,-0.377 0.103,0.067 1.076,0.682 1.18,0.749 -0.061,0.097 -0.39,0.619 -0.479,0.755 -0.26,-0.396 -0.627,-0.755 -1.077,-1.041 -1.185,-0.75 -2.536,-0.751 -3.011,-0.002 -0.477,0.75 0.101,1.973 1.284,2.723 1.182,0.749 2.532,0.752 3.01,0.008 l 2.524,-3.981 z m -3.416,-1.127 c -0.069,0.112 -0.637,1.006 -0.707,1.114 -0.108,-0.067 -1.43,-0.906 -1.535,-0.975 0.067,-0.108 0.636,-1.003 0.705,-1.111 0.106,0.066 1.427,0.904 1.537,0.972 z m 1.866,1.696 c -0.056,0.084 -0.192,0.302 -0.245,0.386 -0.106,-0.066 -1.076,-0.681 -1.182,-0.749 0.054,-0.085 0.194,-0.3 0.245,-0.385 0.105,0.066 1.077,0.682 1.182,0.748 z m -4.237,1.334 c 0.247,-0.389 0.976,-0.37 1.626,0.043 0.649,0.411 0.979,1.062 0.733,1.453 -0.248,0.386 -0.978,0.368 -1.625,-0.045 -0.652,-0.412 -0.98,-1.063 -0.734,-1.451 z" id="path140"></path>
        <path style="fill:#ffffff;stroke:none" d="m 282.065,462.786 c -0.266,1.03 0.472,2.114 1.646,2.414 0.698,0.18 1.424,0.045 1.949,-0.356 0.05,0.014 1.405,0.362 1.53,0.393 -0.034,0.141 -0.761,2.958 -0.761,2.958 l 1.071,0.275 1.504,-5.85 -1.066,-0.277 c 0,0 -0.166,0.637 -0.196,0.756 -0.125,-0.033 -1.49,-0.383 -1.541,-0.397 -0.271,-0.597 -0.836,-1.058 -1.526,-1.236 -1.175,-0.303 -2.345,0.289 -2.61,1.32 z m 1.076,0.278 c 0.156,-0.606 0.754,-0.977 1.334,-0.827 0.578,0.151 0.922,0.763 0.767,1.367 -0.155,0.604 -0.754,0.975 -1.332,0.825 -0.58,-0.149 -0.924,-0.762 -0.769,-1.365 z m 4.418,0.748 c -0.03,0.111 -0.157,0.601 -0.186,0.714 -0.115,-0.031 -1.063,-0.275 -1.193,-0.308 0.054,-0.112 0.109,-0.223 0.138,-0.338 0.032,-0.118 0.037,-0.247 0.04,-0.377 0.135,0.035 1.082,0.278 1.201,0.309 z" id="path142"></path>
        <g id="g148">
          <path style="fill:#ffffff;stroke:none" d="m 306.027,461.753 -2.431,0.647 h 0.002 l -0.704,0.187 0.936,3.527 3.204,-0.849 -0.188,-0.71 c 0,0 -1.996,0.53 -2.125,0.565 -0.036,-0.135 -0.526,-1.976 -0.561,-2.109 0.129,-0.033 2.124,-0.564 2.124,-0.564 l -0.188,-0.712 z" id="path144"></path>
          <path style="fill:#ffffff;stroke:none" d="m 309.078,460.776 -0.998,0.266 c 0,0 0.338,1.277 0.373,1.41 -0.088,0.024 -0.321,0.086 -0.41,0.109 -0.035,-0.132 -0.375,-1.41 -0.375,-1.41 l -1.068,0.284 1.55,5.841 1.069,-0.285 c 0,0 -0.949,-3.578 -0.989,-3.719 0.092,-0.025 0.322,-0.085 0.411,-0.111 0.039,0.143 0.988,3.722 0.988,3.722 l 1.07,-0.282 -1.551,-5.843 z" id="path146"></path>
        </g>
        <g id="g154">
          <path style="fill:#ffffff;stroke:none" d="m 296.617,463.367 h -3.919 v 0.736 c 0,0 1.266,0 1.415,0 -0.177,1.718 -1.133,2.095 -1.543,2.174 l -0.057,0.013 v 0.751 l 0.079,-0.009 c 0.926,-0.109 1.613,-0.564 2.062,-1.332 0.451,0.774 1.148,1.231 2.084,1.334 l 0.077,0.009 v -0.751 l -0.059,-0.01 c -0.414,-0.074 -1.383,-0.441 -1.561,-2.179 0.15,0 1.49,0 1.49,0 v -0.736 z" id="path150"></path>
          <path style="fill:#ffffff;stroke:none" d="m 298.755,463.217 h -1.022 v 6.039 h 1.092 c 0,0 0,-3.707 0,-3.853 0.119,0 0.826,0 0.826,0 v -0.736 c 0,0 -0.707,0 -0.826,0 0,-0.137 0,-1.45 0,-1.45 z" id="path152"></path>
        </g>
        <g id="g162">
          <path style="fill:#ffffff;stroke:none" d="m 317.938,455.809 -0.851,0.561 1.796,2.717 0.909,-0.602 c 0,0 -0.64,-0.968 -0.714,-1.082 0.099,-0.064 0.661,-0.437 0.661,-0.437 l -0.417,-0.633 c 0,0 -0.563,0.372 -0.662,0.438 -0.074,-0.112 -0.662,-1.002 -0.662,-1.002 z" id="path156"></path>
          <path style="fill:#ffffff;stroke:none" d="m 319.933,458.869 -4.701,3.109 0.418,0.632 c 0,0 3.722,-2.46 3.837,-2.535 0.075,0.116 0.898,1.36 0.898,1.36 l 0.924,-0.612 -1.317,-1.992 z" id="path158"></path>
          <path style="fill:#ffffff;stroke:none" d="m 314.859,457.704 -0.861,0.571 c 0,0 0.213,0.322 0.274,0.414 -0.111,0.072 -1.495,0.986 -1.495,0.986 l 0.385,0.583 c 0,0 0.276,-0.184 0.427,-0.283 -0.05,0.313 -0.003,0.6 0.151,0.833 0.451,0.681 1.631,0.696 2.635,0.033 1.004,-0.663 1.455,-1.756 1.004,-2.436 -0.153,-0.234 -0.401,-0.39 -0.711,-0.466 0.142,-0.092 0.386,-0.252 0.386,-0.252 l -0.387,-0.584 c 0,0 -1.364,0.902 -1.476,0.975 -0.058,-0.091 -0.273,-0.413 -0.273,-0.413 z m -0.196,2.467 c -0.23,-0.346 -0.03,-0.885 0.444,-1.198 0.475,-0.315 1.048,-0.286 1.279,0.061 0.229,0.348 0.03,0.888 -0.445,1.201 -0.474,0.314 -1.048,0.285 -1.278,-0.064 z" id="path160"></path>
        </g>
        <g id="g168">
          <path style="fill:#ffffff;stroke:none" d="m 326.258,449.124 -3.967,3.902 0.517,0.524 c 0,0 3.121,-3.068 3.221,-3.168 0.101,0.103 2.383,2.424 2.383,2.424 l 0.795,-0.781 -2.9,-2.95 z" id="path164"></path>
          <path style="fill:#ffffff;stroke:none" d="m 326.133,451.956 -0.744,0.733 c 0,0 1.753,1.784 1.855,1.884 -0.08,0.078 -0.5,0.491 -0.579,0.57 -0.1,-0.103 -1.855,-1.886 -1.855,-1.886 l -0.795,0.783 c 0,0 1.754,1.783 1.854,1.885 -0.09,0.088 -0.786,0.773 -0.786,0.773 l 0.517,0.524 4.802,-4.723 -0.515,-0.523 c 0,0 -1.753,1.722 -1.849,1.814 -0.1,-0.101 -1.853,-1.885 -1.853,-1.885 z" id="path166"></path>
        </g>
      </g>
      <path style="fill:#ffffff;stroke:none" d="m 258.086,442.775 c 0.122,1.11 -0.439,1.237 -0.463,1.242 -0.554,0.187 -0.864,-0.44 -0.877,-0.465 -0.299,-0.594 -0.06,-1.04 -0.057,-1.046 l 0.008,-0.014 -0.075,-0.149 -0.927,0.468 0.028,0.031 c 0.154,0.17 0.256,0.658 0.257,0.663 0.299,1.119 1.206,1.357 1.215,1.361 0.718,0.211 1.335,-0.392 1.341,-0.398 0.55,-0.58 0.425,-1.582 0.42,-1.625 -0.068,-0.918 0.445,-1.14 0.451,-1.142 0.774,-0.391 1.223,0.422 1.241,0.456 0.334,0.662 0.002,1.258 -0.001,1.266 l -0.016,0.027 0.09,0.05 c 0.03,0 0.819,-0.463 0.819,-0.463 0.141,-0.419 -0.274,-1.251 -0.291,-1.286 -0.322,-0.559 -0.717,-0.898 -1.175,-1.008 -0.619,-0.146 -1.121,0.18 -1.142,0.194 -1.002,0.505 -0.847,1.825 -0.846,1.838 z" id="path172"></path>
      <path style="fill:#ffffff;stroke:none" d="m 253.139,437.2 c 0.514,1.601 1.882,2.304 3.485,1.789 1.554,-0.5 2.292,-1.931 1.793,-3.484 -0.514,-1.602 -1.882,-2.303 -3.485,-1.789 -1.605,0.515 -2.308,1.883 -1.793,3.484 z m 2.075,-2.599 c 1.127,-0.358 2.182,0.117 2.506,1.129 0.349,1.086 -0.168,1.968 -1.384,2.36 -1.18,0.379 -2.162,-0.06 -2.501,-1.113 -0.159,-0.496 -0.132,-0.972 0.079,-1.38 0.236,-0.457 0.686,-0.802 1.3,-0.996 z" id="path174"></path>
      <path style="fill:#ffffff;stroke:none" d="m 251.333,429.833 c 0.255,1.661 1.495,2.569 3.16,2.315 1.613,-0.248 2.567,-1.547 2.319,-3.158 -0.256,-1.663 -1.497,-2.571 -3.161,-2.315 -1.664,0.256 -2.574,1.494 -2.318,3.158 z m 2.459,-2.241 c 1.17,-0.174 2.136,0.46 2.297,1.509 0.173,1.129 -0.477,1.92 -1.74,2.113 -1.223,0.187 -2.124,-0.397 -2.294,-1.492 -0.078,-0.514 0.024,-0.981 0.295,-1.35 0.307,-0.414 0.805,-0.684 1.442,-0.78 z" id="path176"></path>
      <path style="fill:#ffffff;stroke:none" d="m 255.597,420.149 c -0.002,10e-4 -2.196,2.049 -2.241,2.092 -0.042,-0.045 -1.903,-2.011 -1.903,-2.011 -0.264,-0.316 -0.299,-0.584 -0.299,-0.587 l -0.003,-0.028 -0.157,-0.001 -0.001,0.032 -0.004,1.706 h 0.166 l 0.008,-0.022 c 0.02,-0.068 0.05,-0.108 0.088,-0.117 0.007,-0.002 0.014,-0.003 0.02,-0.003 0.059,0 0.124,0.053 0.147,0.076 0,0 1.4,1.463 1.648,1.722 -0.134,-10e-4 -1.505,-0.004 -1.505,-0.004 -0.319,-0.001 -0.412,-0.295 -0.416,-0.308 l -0.007,-0.022 h -0.153 l -0.004,1.618 h 0.161 v -0.031 c 0.001,-0.319 0.4,-0.34 0.417,-0.342 l 4.115,0.012 c 0.386,0 0.439,0.334 0.441,0.347 l 0.004,0.028 0.163,0.001 0.005,-1.618 -0.161,-0.001 -0.006,0.023 c -0.08,0.294 -0.43,0.304 -0.444,0.304 0,0 -1.751,-0.004 -1.899,-0.005 0.111,-0.103 1.972,-1.818 1.972,-1.818 0.489,-0.427 0.541,-0.713 0.543,-0.726 l 0.003,-1.021 -0.227,-10e-4 -0.006,0.025 c -0.07,0.269 -0.461,0.675 -0.465,0.68 z" id="path178"></path>
      <path style="fill:#ffffff;stroke:none" d="m 256.877,411.192 c -0.001,0 -4.96,0.177 -4.96,0.177 l -0.005,0.025 -0.021,0.106 c 0.011,0.029 3.127,2.241 3.572,2.556 -0.131,0.032 -4.258,0.992 -4.258,0.992 l -0.046,0.133 -0.005,0.025 4.528,1.996 c 0.412,0.179 0.425,0.436 0.427,0.447 l 0.001,0.025 0.13,0.026 0.28,-1.41 -0.129,-0.026 -0.012,0.022 c -0.086,0.179 -0.248,0.178 -0.341,0.16 -0.04,-0.008 -0.07,-0.02 -0.073,-0.022 0,0 -2.229,-0.91 -2.659,-1.086 0.179,-0.043 3.729,-0.896 3.729,-0.896 l 0.047,-0.146 c -0.011,-0.028 -2.646,-1.877 -3.124,-2.214 0.185,0 2.819,0.001 2.819,0.001 0.055,10e-4 0.105,0.005 0.147,0.014 0.087,0.017 0.149,0.05 0.183,0.095 0.052,0.068 0.032,0.145 0.031,0.148 l -0.009,0.033 0.163,0.032 0.287,-1.447 -0.13,-0.026 c -0.237,0.26 -0.569,0.26 -0.572,0.26 z" id="path180"></path>
      <path style="fill:#ffffff;stroke:none" d="m 254.312,405.184 0.11,0.043 0.015,-0.018 c 0,0 0.057,-0.07 0.14,-0.076 0.025,-0.002 0.049,0.002 0.075,0.013 0.03,0.011 0.059,0.032 0.089,0.059 0,0 0.997,1.278 1.161,1.488 -0.102,0.015 -1.858,0.258 -1.858,0.258 0.003,0 -0.119,0.003 -0.183,-0.066 l -0.043,-0.149 -0.015,-0.017 -0.088,-0.035 -0.574,1.441 0.114,0.045 0.013,-0.025 c 0.001,-0.003 0.105,-0.194 0.707,-0.297 l 2.448,-0.402 1.78,0.715 c 0.007,0.003 0.242,0.137 0.161,0.435 l -0.007,0.026 0.167,0.066 0.609,-1.528 -0.163,-0.065 -0.014,0.02 c -0.002,0.003 -0.215,0.289 -0.447,0.197 l -1.769,-0.705 c 0.004,-0.003 -1.47,-2.006 -1.47,-2.006 -0.006,-0.007 -0.341,-0.398 -0.308,-0.708 l 0.002,-0.023 -0.11,-0.044 -0.012,0.029 z" id="path182"></path>
      <path style="fill:#ffffff;stroke:none" d="m 257.559,398.953 0.106,0.062 0.016,-0.013 c 0.292,-0.235 0.6,-0.033 0.614,-0.024 l 2.484,1.447 c 0.285,0.165 0.462,0.383 0.527,0.643 0.115,0.458 -0.156,0.905 -0.159,0.909 -0.003,0.006 -0.256,0.461 -0.708,0.587 -0.26,0.073 -0.536,0.025 -0.821,-0.141 l -2.483,-1.446 c -0.015,-0.009 -0.342,-0.177 -0.282,-0.546 l 0.003,-0.021 -0.106,-0.062 -0.802,1.377 0.108,0.063 0.017,-0.016 c 0.01,-0.01 0.263,-0.24 0.671,-0.003 l 2.536,1.478 c 0.015,0.008 1.49,0.827 2.497,-0.902 0.355,-0.609 0.462,-1.168 0.318,-1.661 -0.189,-0.653 -0.745,-0.949 -0.769,-0.96 l -2.534,-1.477 c -0.408,-0.238 -0.332,-0.572 -0.329,-0.585 l 0.006,-0.023 -0.108,-0.063 -0.015,0.027 z" id="path184"></path>
      <path style="fill:#ffffff;stroke:none" d="m 262.11,392.457 0.019,-0.024 c 0.191,-0.234 0.488,-0.056 0.5,-0.048 0,0 2.191,1.783 2.311,1.881 -0.158,0.009 -5.054,0.259 -5.054,0.259 l -0.084,0.088 -0.019,0.024 3.57,2.907 c 0.543,0.441 0.337,0.72 0.328,0.732 l -0.019,0.024 0.134,0.108 0.979,-1.202 -0.134,-0.109 -0.021,0.025 c -0.046,0.057 -0.102,0.087 -0.174,0.093 -0.186,0.015 -0.405,-0.15 -0.465,-0.199 -0.009,-0.007 -2.041,-1.661 -2.16,-1.759 0.158,-0.008 5.046,-0.257 5.046,-0.257 l 0.084,-0.088 0.019,-0.025 -3.736,-3.042 c -0.357,-0.29 -0.161,-0.57 -0.152,-0.582 l 0.018,-0.024 -0.107,-0.086 -0.991,1.217 z" id="path186"></path>
      <path style="fill:#ffffff;stroke:none" d="m 269.198,388.93 0.023,-0.018 c 0.01,-0.007 0.223,-0.158 0.539,0.09 0,0 0.857,1 0.858,1.001 -0.012,-0.008 -0.162,0.491 -0.805,0.953 -0.012,0.008 -1.247,0.855 -2.492,-0.379 -0.006,-0.007 -0.635,-0.641 -0.631,-1.472 0.003,-0.494 0.225,-0.96 0.661,-1.385 0.005,-0.005 0.493,-0.473 1.303,-0.515 l 0.073,-0.055 0.024,-0.02 -0.665,-0.773 -0.022,0.034 c -0.003,0.002 -0.14,0.208 -0.586,0.425 -0.01,0.004 -1.198,0.51 -1.567,1.843 -0.004,0.012 -0.351,1.267 0.733,2.529 0.015,0.018 1.551,1.792 3.624,0.337 0.011,-0.008 0.981,-0.753 1.325,-1.692 l -1.551,-1.83 -0.943,0.811 z" id="path188"></path>
      <path style="fill:#ffffff;stroke:none" d="m 318.4,384.977 c -0.637,-0.909 -0.207,-1.288 -0.188,-1.305 0.393,-0.427 0.962,-0.031 0.986,-0.014 0.543,0.374 0.55,0.879 0.548,0.884 l 0.002,0.016 0.136,0.093 0.585,-0.849 -0.039,-0.014 c -0.217,-0.075 -0.539,-0.451 -0.543,-0.455 -0.796,-0.834 -1.701,-0.608 -1.708,-0.605 -0.728,0.159 -0.978,0.979 -0.982,0.987 -0.201,0.77 0.39,1.584 0.414,1.619 0.498,0.768 0.157,1.205 0.153,1.21 -0.489,0.71 -1.268,0.217 -1.301,0.196 -0.607,-0.417 -0.604,-1.095 -0.604,-1.102 v -0.032 l -0.101,-0.002 c -0.028,0.015 -0.492,0.796 -0.492,0.796 0.076,0.433 0.837,0.959 0.869,0.981 0.549,0.335 1.055,0.441 1.506,0.317 0.609,-0.169 0.892,-0.693 0.902,-0.715 0.631,-0.919 -0.135,-1.996 -0.143,-2.006 z" id="path190"></path>
      <path style="fill:#ffffff;stroke:none" d="m 285.18,378.235 c -1.578,0.526 -2.258,1.887 -1.731,3.468 0.51,1.533 1.935,2.247 3.466,1.737 1.577,-0.525 2.258,-1.888 1.732,-3.469 -0.527,-1.58 -1.889,-2.261 -3.467,-1.736 z m 2.593,2.027 c 0.366,1.111 -0.092,2.158 -1.088,2.49 -1.073,0.357 -1.951,-0.145 -2.349,-1.344 -0.389,-1.162 0.033,-2.137 1.074,-2.485 0.487,-0.162 0.958,-0.141 1.362,0.062 0.457,0.23 0.803,0.671 1.001,1.277 z" id="path192"></path>
      <path style="fill:#ffffff;stroke:none" d="m 297.045,381.439 c 0,-0.001 -1.443,-4.747 -1.443,-4.747 l -0.024,10e-4 -0.109,0.007 c -0.026,0.019 -1.364,3.596 -1.555,4.107 -0.063,-0.119 -2.05,-3.86 -2.05,-3.86 l -0.141,-0.01 -0.026,10e-4 -0.767,4.887 c -0.067,0.444 -0.311,0.524 -0.323,0.527 l -0.021,0.007 0.008,0.132 1.433,-0.091 -0.009,-0.131 -0.023,-0.005 c -0.195,-0.038 -0.235,-0.194 -0.241,-0.289 -0.002,-0.042 10e-4,-0.072 0,-0.075 0,0 0.31,-2.389 0.369,-2.849 0.088,0.163 1.822,3.373 1.822,3.373 l 0.153,0.009 c 0.025,-0.018 1.136,-3.037 1.34,-3.587 0.046,0.18 0.72,2.725 0.72,2.725 0.014,0.053 0.022,0.102 0.024,0.147 0.007,0.086 -0.01,0.155 -0.045,0.201 -0.053,0.066 -0.131,0.066 -0.135,0.066 l -0.034,-0.001 0.01,0.166 1.473,-0.092 -0.009,-0.133 c -0.311,-0.163 -0.397,-0.483 -0.397,-0.486 z" id="path194"></path>
      <path style="fill:#ffffff;stroke:none" d="m 309.391,378.899 0.03,0.008 c 0.294,0.082 0.25,0.429 0.247,0.444 0,0 -0.764,2.745 -0.806,2.894 -0.07,-0.142 -2.28,-4.565 -2.28,-4.565 l -0.115,-0.042 -0.029,-0.009 -1.245,4.471 c -0.189,0.681 -0.529,0.602 -0.543,0.599 l -0.029,-0.007 -0.047,0.166 1.506,0.42 0.047,-0.168 -0.031,-0.009 c -0.073,-0.019 -0.123,-0.059 -0.156,-0.122 -0.092,-0.168 -0.026,-0.436 -0.005,-0.511 0.005,-0.012 0.712,-2.557 0.753,-2.706 0.071,0.143 2.275,4.557 2.275,4.557 l 0.115,0.043 0.03,0.009 1.302,-4.679 c 0.125,-0.448 0.463,-0.38 0.477,-0.376 l 0.028,0.006 0.037,-0.133 -1.524,-0.423 z" id="path196"></path>
      <path style="fill:#ffffff;stroke:none" d="m 280.404,379.644 -0.078,-0.136 -1.213,0.7 0.067,0.115 0.025,-0.011 c 0.001,0 0.102,-0.04 0.193,0.005 0.04,0.02 0.072,0.051 0.096,0.096 0.018,0.03 0.032,0.066 0.044,0.108 0,0 0.473,2.642 0.548,3.061 -0.127,-0.104 -2.912,-2.411 -2.912,-2.411 l -0.018,0.011 -0.11,0.064 c 0,0 0.593,3.579 0.618,3.74 -0.123,-0.104 -2.308,-1.944 -2.308,-1.944 -0.003,-0.003 -0.104,-0.074 -0.158,-0.168 -0.021,-0.036 -0.034,-0.074 -0.034,-0.112 0,-0.061 0.037,-0.116 0.109,-0.166 l 0.024,-0.016 -0.068,-0.116 -1.311,0.757 0.067,0.117 0.028,-0.014 c 0.002,-0.002 0.183,-0.093 0.716,0.358 l 3.822,3.174 0.163,-0.095 c 0,0 -0.589,-3.598 -0.615,-3.756 0.124,0.101 2.921,2.424 2.921,2.424 l 0.136,-0.079 -0.849,-5.058 c -0.028,-0.149 -0.07,-0.551 0.07,-0.632 z" id="path198"></path>
      <path style="fill:#ffffff;stroke:none" d="m 302.008,381.747 -1.2,-0.112 c -0.011,-10e-4 -0.234,-0.026 -0.214,-0.235 0,0 0.137,-1.462 0.143,-1.521 0.058,0.006 1.175,0.11 1.175,0.11 0.003,0 0.416,0.072 0.483,0.402 l 0.004,0.023 0.166,0.014 0.132,-1.424 -0.14,-0.013 c -0.039,0.032 -0.211,0.366 -0.617,0.328 0,0 -1.081,-0.101 -1.141,-0.107 0.006,-0.058 0.121,-1.358 0.127,-1.416 0.059,0.005 1.461,0.136 1.461,0.136 0.011,10e-4 0.266,0.03 0.341,0.33 l 0.006,0.022 0.141,0.013 0.097,-1.034 -0.031,-0.003 -3.191,-0.299 -0.013,0.132 0.029,0.007 c 0.004,10e-4 0.336,0.086 0.268,0.796 l -0.325,3.474 c 10e-4,0.008 -0.027,0.634 -0.408,0.673 l -0.026,0.003 -0.014,0.146 3.18,0.297 0.25,-1.05 -0.132,-0.012 c -0.039,0.031 -0.209,0.352 -0.551,0.32 z" id="path200"></path>
      <path style="fill:#ffffff;stroke:none" d="m 313.72,380.547 -0.713,2.064 0.496,0.194 0.917,-1.984 -0.031,-0.012 z" id="path202"></path>
      <path style="fill:#ffffff;stroke:none" d="m 339.902,426.756 c 0.404,-1.043 0.961,-0.898 0.985,-0.89 0.579,0.088 0.566,0.788 0.565,0.817 -0.007,0.666 -0.426,0.953 -0.43,0.956 l -0.013,0.009 -0.003,0.168 1.04,0.011 -0.011,-0.041 c -0.059,-0.222 0.075,-0.704 0.076,-0.709 0.251,-1.133 -0.445,-1.763 -0.453,-1.767 -0.54,-0.52 -1.367,-0.268 -1.375,-0.265 -0.757,0.263 -1.107,1.211 -1.121,1.251 -0.364,0.848 -0.922,0.809 -0.927,0.807 -0.87,-0.009 -0.893,-0.94 -0.895,-0.978 0.008,-0.741 0.579,-1.12 0.585,-1.124 l 0.026,-0.018 -0.056,-0.085 c -0.028,-0.014 -0.943,0.035 -0.943,0.035 -0.319,0.306 -0.333,1.238 -0.333,1.277 0.029,0.647 0.224,1.13 0.582,1.438 0.483,0.414 1.078,0.356 1.104,0.353 1.123,0.012 1.593,-1.232 1.597,-1.245 z" id="path204"></path>
      <path style="fill:#ffffff;stroke:none" d="m 328.767,390.611 -0.091,0.084 0.009,0.021 c 0.141,0.349 -0.144,0.589 -0.157,0.598 l -2.128,1.974 c -0.244,0.226 -0.503,0.333 -0.777,0.32 -0.475,-0.024 -0.826,-0.415 -0.83,-0.42 -0.005,-0.005 -0.369,-0.383 -0.359,-0.859 0.007,-0.271 0.134,-0.523 0.377,-0.749 l 2.127,-1.972 c 0.013,-0.013 0.272,-0.279 0.61,-0.113 l 0.018,0.01 0.092,-0.084 -1.093,-1.178 -0.091,0.085 0.009,0.02 c 0.006,0.013 0.156,0.324 -0.195,0.649 l -2.171,2.013 c -0.012,0.012 -1.236,1.197 0.137,2.677 0.482,0.52 0.991,0.789 1.509,0.795 0.685,0.009 1.134,-0.442 1.153,-0.46 l 2.17,-2.013 c 0.349,-0.324 0.649,-0.153 0.662,-0.144 l 0.02,0.011 0.093,-0.085 -0.022,-0.024 z" id="path206"></path>
      <path style="fill:#ffffff;stroke:none" d="m 333.972,396.494 0.018,0.027 c 0.178,0.246 -0.074,0.487 -0.084,0.498 0,0 -2.317,1.658 -2.443,1.749 0.033,-0.155 1.088,-4.984 1.088,-4.984 l -0.063,-0.105 -0.017,-0.026 -3.774,2.702 c -0.574,0.412 -0.801,0.144 -0.81,0.134 l -0.02,-0.025 -0.128,0.092 0.909,1.27 0.13,-0.093 -0.018,-0.024 c -0.043,-0.06 -0.057,-0.123 -0.043,-0.192 0.034,-0.19 0.261,-0.365 0.326,-0.41 0.012,-0.008 2.159,-1.546 2.285,-1.636 -0.035,0.155 -1.088,4.974 -1.088,4.974 l 0.063,0.107 0.018,0.025 3.95,-2.826 c 0.377,-0.271 0.597,-0.005 0.606,0.005 l 0.019,0.024 0.111,-0.081 -0.921,-1.287 z" id="path208"></path>
      <path style="fill:#ffffff;stroke:none" d="m 336.768,414.266 -0.297,-1.162 c -0.002,-0.01 -0.053,-0.228 0.148,-0.279 0,0 1.416,-0.362 1.475,-0.376 0.014,0.059 0.291,1.139 0.291,1.139 0,0.002 0.072,0.415 -0.217,0.587 l -0.02,0.014 0.042,0.157 1.381,-0.351 -0.035,-0.136 c -0.042,-0.026 -0.415,-0.076 -0.514,-0.47 0,0 -0.268,-1.047 -0.282,-1.105 0.057,-0.014 1.314,-0.342 1.371,-0.356 0.014,0.058 0.362,1.418 0.362,1.418 0.002,0.011 0.06,0.26 -0.196,0.43 l -0.019,0.012 0.035,0.138 1.004,-0.256 -0.008,-0.032 -0.787,-3.09 -0.131,0.033 0.005,0.027 c 0,0.003 0.032,0.344 -0.656,0.519 l -3.368,0.858 c -0.007,0.003 -0.604,0.185 -0.768,-0.159 l -0.012,-0.022 -0.14,0.036 0.785,3.082 1.067,-0.119 -0.032,-0.127 c -0.041,-0.026 -0.4,-0.079 -0.484,-0.41 z" id="path210"></path>
      <path style="fill:#ffffff;stroke:none" d="m 336.107,399.825 -0.119,0.068 0.012,0.025 c 0.006,0.013 0.139,0.305 -0.342,0.58 l -3.226,1.84 c -0.006,0.003 -0.441,0.282 -0.747,0.033 l -0.093,0.031 -0.027,0.016 0.8,1.402 0.11,-0.062 -0.01,-0.025 c -0.006,-0.013 -0.115,-0.325 0.407,-0.623 l 3.269,-1.865 c 0.003,-10e-4 0.262,-0.157 0.464,-0.105 0.071,0.019 0.127,0.062 0.167,0.13 l 0.015,0.027 0.121,-0.068 -0.015,-0.028 z" id="path212"></path>
      <path style="fill:#ffffff;stroke:none" d="m 341.127,431.682 -0.133,-0.031 -0.008,0.028 c -0.004,0.013 -0.105,0.316 -0.643,0.191 l -3.619,-0.841 c -0.007,-0.002 -0.515,-0.092 -0.57,-0.482 l -0.09,-0.042 -0.031,-0.007 -0.366,1.574 0.123,0.029 0.01,-0.026 c 0.005,-0.013 0.138,-0.316 0.722,-0.179 l 3.666,0.851 c 0.003,0 0.3,0.064 0.412,0.238 0.04,0.062 0.051,0.132 0.034,0.209 l -0.007,0.031 0.135,0.032 0.008,-0.031 z" id="path214"></path>
      <path style="fill:#ffffff;stroke:none" d="m 339.365,407.222 -0.13,0.046 0.009,0.03 c 0,0 0.028,0.092 -0.021,0.157 -0.016,0.022 -0.041,0.04 -0.074,0.051 -0.034,0.013 -0.079,0.019 -0.131,0.018 0,0 -3.098,-0.18 -3.597,-0.209 0.105,-0.097 2.524,-2.302 2.524,-2.302 0.002,-0.002 0.106,-0.096 0.218,-0.135 0.046,-0.017 0.091,-0.024 0.134,-0.014 0.055,0.014 0.094,0.057 0.12,0.132 l 0.012,0.029 0.131,-0.046 -0.538,-1.497 -0.132,0.047 0.012,0.031 c 0,0.003 0.07,0.194 -0.455,0.691 l -3.672,3.547 0.041,0.168 c 0.028,0.021 5.553,0.436 5.553,0.436 0,0 0.291,0.056 0.348,0.214 l 0.011,0.03 0.131,-0.047 -0.01,-0.03 z" id="path216"></path>
      <path style="fill:#ffffff;stroke:none" d="m 337.269,421.727 c 0,0 1.811,-1.452 1.999,-1.603 0.068,0.204 0.429,1.11 1.437,1.037 0.002,0 0.012,0 0.026,-0.002 0.121,-0.009 0.622,-0.069 0.978,-0.463 0.273,-0.302 0.393,-0.726 0.353,-1.257 l -0.162,-2.212 -0.002,-0.032 -0.142,0.011 0.006,0.034 c 0.002,0.004 0.015,0.091 -0.053,0.182 -0.084,0.109 -0.258,0.175 -0.502,0.194 l -3.749,0.272 c -0.006,0.001 -0.553,0.063 -0.642,-0.276 l -0.007,-0.026 -0.125,0.01 0.116,1.601 0.126,-0.009 0.002,-0.026 c 0.002,-0.013 0.047,-0.326 0.521,-0.361 0,0 3.842,-0.279 3.844,-0.279 -0.006,0.002 0.125,0.1 0.152,0.487 0,0.01 0.073,0.956 -0.585,1.187 -0.003,10e-4 -0.448,0.139 -0.776,-0.067 -0.004,-0.001 -0.363,-0.23 -0.402,-0.775 l -0.039,-0.516 -0.135,0.01 c -0.016,0.006 -2.284,1.736 -2.284,1.736 -0.013,0.01 -0.301,0.252 -0.355,0.485 l 0.051,0.689 c 0,0.023 0.025,0.214 0.102,0.28 l 0.096,0.002 0.048,-0.004 -0.021,-0.041 c -0.004,-0.006 -0.055,-0.114 0.124,-0.268 z" id="path218"></path>
      <path style="fill:#ffffff;stroke:none" d="m 338.967,439.277 0.008,-0.024 1.128,-3.221 -0.328,-0.203 -0.617,-0.218 -0.03,0.086 c 0.009,0.035 0.27,0.356 0.165,0.658 0,0 -0.217,0.616 -0.236,0.67 -0.058,-0.02 -3.567,-1.248 -3.567,-1.248 -0.001,-10e-4 -0.01,-0.002 -0.024,-0.008 -0.103,-0.036 -0.478,-0.19 -0.489,-0.534 l -0.086,-0.05 -0.03,-0.01 -0.535,1.525 0.119,0.041 0.014,-0.023 c 0.006,-0.013 0.171,-0.301 0.738,-0.102 0,0 3.508,1.227 3.567,1.248 -0.019,0.055 -0.23,0.657 -0.23,0.657 -0.105,0.302 -0.511,0.39 -0.514,0.39 l -0.043,0.076 -0.012,0.03 0.612,0.215 c 0.006,10e-4 0.366,0.043 0.366,0.043 z" id="path220"></path>
      <path style="fill:#ffffff;stroke:none" d="m 335.934,445.941 0.61,-1.295 -0.123,-0.058 -0.016,0.023 c -0.026,0.042 -0.057,0.062 -0.093,0.063 -0.023,0.001 -0.044,-0.007 -0.067,-0.017 -0.079,-0.038 -0.159,-0.131 -0.189,-0.174 0,0 -0.962,-1.371 -1.022,-1.455 0.104,-0.009 1.974,-0.18 1.974,-0.18 0.046,-0.003 0.081,10e-4 0.105,0.013 0.016,0.007 0.028,0.017 0.035,0.03 0.036,0.055 -0.002,0.158 -0.022,0.194 l -0.015,0.029 0.127,0.059 0.664,-1.408 -0.126,-0.059 -0.014,0.029 c -0.084,0.181 -0.355,0.215 -0.357,0.216 l -2.858,0.269 -1.442,-0.686 c -0.006,-0.002 -0.482,-0.198 -0.457,-0.592 l -0.078,-0.058 -0.029,-0.014 -0.688,1.459 0.113,0.055 0.014,-0.023 c 0.01,-0.01 0.202,-0.28 0.747,-0.023 l 1.457,0.688 c -0.004,0.002 1.486,2.276 1.486,2.276 0.224,0.336 0.137,0.578 0.137,0.582 l -0.012,0.027 0.125,0.057 z" id="path222"></path>
    </g>
  </g>
</svg>
